<svg version="1.1" id="Layer_1" xmlns="http://www.w3.org/2000/svg" xmlns:xlink="http://www.w3.org/1999/xlink" x="0px" y="0px" width="100%px" viewBox="0 0 464 192" enable-background="new 0 0 464 192" xml:space="preserve" height="100px" transform="rotate(0) scale(1, 1)">
<path fill="#f43e5c" opacity="1.000000" stroke="none" d="&#10;M93.250000,193.000000 &#10;&#9;C91.306343,191.058029 91.880302,189.069672 92.686897,186.936172 &#10;&#9;C97.467896,174.290131 103.562271,162.270599 109.920303,150.369781 &#10;&#9;C111.579491,147.264175 113.999550,144.498596 109.537247,141.048401 &#10;&#9;C106.897736,139.007568 109.888542,136.293823 111.978004,136.086685 &#10;&#9;C118.613274,135.428940 120.824661,130.472244 123.618126,125.711693 &#10;&#9;C130.650345,113.727562 138.942154,102.680641 149.417023,93.470741 &#10;&#9;C152.146149,91.071205 155.167679,87.047867 159.276871,89.237816 &#10;&#9;C163.398987,91.434647 161.030350,95.763504 160.425278,99.203529 &#10;&#9;C158.900406,107.872932 157.169235,116.506149 155.657242,125.177666 &#10;&#9;C154.849670,129.809204 151.989578,135.187561 160.250198,137.544891 &#10;&#9;C151.852005,137.461884 152.540695,143.071396 152.251328,147.856628 &#10;&#9;C151.703094,156.923157 148.907318,165.875046 151.104324,175.105133 &#10;&#9;C151.604218,177.205231 150.722366,179.400772 147.650421,179.917099 &#10;&#9;C146.029007,177.888229 146.551483,175.438751 146.820160,173.311050 &#10;&#9;C147.939835,164.443985 143.217361,158.805740 136.621155,154.170395 &#10;&#9;C131.809479,150.789078 126.219772,148.970383 120.897614,146.607925 &#10;&#9;C117.837631,145.249634 116.271622,145.977051 114.663048,148.982071 &#10;&#9;C107.112579,163.087372 100.292099,177.523392 94.088081,192.649963 &#10;&#9;C94.000000,193.000000 93.500000,193.000000 93.250000,193.000000 &#10;M126.540939,134.504150 &#10;&#9;C133.504425,134.199280 140.464661,133.644348 147.439926,134.219940 &#10;&#9;C150.719513,134.490570 151.151474,132.124191 151.601303,129.754761 &#10;&#9;C152.869873,123.072639 154.423859,116.429718 155.337051,109.699661 &#10;&#9;C156.125702,103.887436 158.464310,98.289299 158.173218,92.386604 &#10;&#9;C156.841797,91.945602 156.238403,92.618866 155.659775,93.161888 &#10;&#9;C143.714386,104.372139 133.756073,117.199127 124.960777,130.968735 &#10;&#9;C124.034973,132.418137 123.598839,133.750198 126.540939,134.504150 &#10;M148.559464,150.941757 &#10;&#9;C148.873093,148.473145 149.134552,145.996490 149.513016,143.537857 &#10;&#9;C150.036301,140.138412 149.193817,138.024338 145.209869,138.113098 &#10;&#9;C138.055008,138.272507 130.896652,138.271973 123.739952,138.355331 &#10;&#9;C121.777603,138.378174 119.889977,138.875549 119.600334,141.102829 &#10;&#9;C119.342613,143.084732 121.333290,143.257004 122.631737,143.819626 &#10;&#9;C128.590424,146.401382 134.491257,149.079254 139.994507,152.575684 &#10;&#9;C142.269485,154.021057 143.768158,156.706543 146.639130,157.196548 &#10;&#9;C148.145966,155.425385 147.734009,153.418350 148.559464,150.941757 &#10;z"/>
<path fill="#f43e5c" opacity="1.000000" stroke="none" d="&#10;M239.909760,145.147858 &#10;&#9;C232.074814,147.494995 230.989761,147.214310 227.145111,142.010315 &#10;&#9;C224.725525,142.244370 222.947067,143.848602 221.059113,145.144119 &#10;&#9;C217.700821,147.448608 216.671951,146.069946 216.588120,142.608673 &#10;&#9;C216.433975,136.243713 217.585480,130.043076 218.736710,123.832039 &#10;&#9;C220.523178,114.193687 221.920303,104.473831 224.761368,95.058655 &#10;&#9;C225.311127,93.236771 225.468826,91.008110 229.584946,90.721581 &#10;&#9;C225.643753,107.348785 221.930832,123.606453 220.365234,140.758530 &#10;&#9;C224.890686,140.305542 231.135422,130.902267 232.591736,143.193085 &#10;&#9;C238.947266,142.925232 243.734329,139.464584 248.789368,136.792236 &#10;&#9;C251.135696,135.551849 253.231247,133.844513 255.546005,132.535477 &#10;&#9;C260.340973,129.823868 264.137787,131.893448 264.595703,137.367630 &#10;&#9;C265.063202,142.956436 266.123901,143.710419 271.711609,141.947281 &#10;&#9;C279.363190,139.532913 286.427704,135.739914 293.642395,132.311035 &#10;&#9;C295.381470,131.484512 297.018555,129.528168 299.023468,131.229538 &#10;&#9;C300.829376,132.762039 299.319092,134.580994 298.841858,136.282852 &#10;&#9;C298.444672,137.699081 298.235992,139.168213 297.820618,141.223358 &#10;&#9;C302.200928,139.535141 304.084229,135.926315 306.612976,133.128677 &#10;&#9;C311.114868,128.148071 312.807434,128.193512 316.162659,133.920258 &#10;&#9;C318.475494,134.297531 320.300079,132.798584 322.012421,131.738190 &#10;&#9;C326.811981,128.765976 332.251007,129.305344 337.408691,128.666229 &#10;&#9;C340.901642,128.233383 341.990082,131.569763 342.413086,134.404922 &#10;&#9;C343.243164,139.968719 344.587708,140.989212 350.019196,139.145432 &#10;&#9;C357.603516,136.570923 364.778320,133.057724 371.866455,129.350830 &#10;&#9;C373.203888,128.651398 374.423981,127.010033 376.301819,128.108139 &#10;&#9;C376.939667,129.976624 375.470337,130.560196 374.413696,131.174423 &#10;&#9;C366.488922,135.781204 358.443695,140.183990 349.632599,142.879440 &#10;&#9;C343.267029,144.826752 340.838867,143.659012 338.059967,137.891937 &#10;&#9;C336.605774,137.387192 335.550232,138.387161 334.365112,138.906128 &#10;&#9;C332.127930,139.885727 329.673035,141.931625 327.474335,139.749298 &#10;&#9;C325.327576,137.618500 328.099609,135.520325 328.601898,133.383347 &#10;&#9;C320.980103,133.725113 316.276123,138.135712 315.395081,145.454330 &#10;&#9;C314.148804,155.806488 311.665375,165.748993 305.039581,174.179047 &#10;&#9;C304.833771,174.440872 304.651581,174.721802 304.438873,174.977585 &#10;&#9;C300.459564,179.762878 295.057831,181.788452 291.419006,179.863678 &#10;&#9;C287.903381,178.004074 287.011108,172.462555 289.361511,166.240402 &#10;&#9;C293.410339,155.522049 300.527954,147.049438 309.063293,139.642853 &#10;&#9;C309.690033,139.098984 310.428375,138.682663 311.048248,138.132126 &#10;&#9;C311.944183,137.336487 312.885803,136.326874 311.986786,135.151398 &#10;&#9;C310.860962,133.679367 309.573334,134.474823 308.599487,135.491959 &#10;&#9;C306.184082,138.014603 303.909912,140.674927 301.448730,143.150391 &#10;&#9;C299.953003,144.654800 298.314697,146.584625 295.861298,145.225021 &#10;&#9;C293.617737,143.981720 294.709290,141.669647 294.668365,139.766953 &#10;&#9;C294.643982,138.633713 295.241669,137.469849 294.389038,136.248886 &#10;&#9;C292.405640,135.355484 291.078308,137.102875 289.563629,137.822647 &#10;&#9;C283.398102,140.752518 277.337677,143.909393 270.698334,145.699860 &#10;&#9;C266.705963,146.776489 263.016113,146.924286 260.953339,142.394424 &#10;&#9;C260.023743,140.353073 258.657837,140.263184 256.911774,141.261795 &#10;&#9;C254.097733,142.871201 251.476974,143.759384 247.998795,142.286819 &#10;&#9;C245.279770,141.135635 243.031967,144.484818 239.909760,145.147858 &#10;M307.914276,161.396179 &#10;&#9;C310.235199,155.441742 311.800873,149.334610 312.222321,141.424896 &#10;&#9;C301.783203,150.773392 294.017395,160.099762 291.424469,172.885056 &#10;&#9;C291.121155,174.380692 291.424927,175.894180 292.888031,176.845261 &#10;&#9;C294.459869,177.867050 295.787506,176.953964 297.021698,176.167404 &#10;&#9;C302.294128,172.807159 305.367401,167.753281 307.914276,161.396179 &#10;z"/>
<path fill="#f43e5c" opacity="1.000000" stroke="none" d="&#10;M172.412140,112.276459 &#10;&#9;C171.156647,118.343193 169.806335,123.968330 169.468979,130.028030 &#10;&#9;C172.517593,130.542542 174.162201,128.250427 176.331696,127.379623 &#10;&#9;C178.084854,126.675941 180.323151,124.559364 181.649460,126.709015 &#10;&#9;C183.262817,129.323853 179.892654,129.641281 178.481155,130.671646 &#10;&#9;C175.358200,132.951370 171.300964,133.910873 168.253998,137.864426 &#10;&#9;C178.773483,138.777176 188.049866,135.091125 197.618286,134.096481 &#10;&#9;C198.067734,137.153366 196.015411,137.275375 194.576782,137.629547 &#10;&#9;C187.790253,139.300186 180.970901,140.874725 173.962799,141.277817 &#10;&#9;C167.465485,141.651535 166.776550,142.360168 166.278458,149.029373 &#10;&#9;C166.100143,151.416977 166.886032,154.006256 165.193054,156.230530 &#10;&#9;C159.861252,151.118042 168.999649,96.685188 176.933502,91.442635 &#10;&#9;C176.947098,99.113594 172.918228,105.179054 172.412140,112.276459 &#10;z"/>
<path fill="#f43e5c" opacity="1.000000" stroke="none" d="&#10;M196.091095,145.099091 &#10;&#9;C200.284317,142.054062 201.461746,138.779907 198.942734,134.210052 &#10;&#9;C197.600754,131.775543 197.190399,128.806900 197.740799,125.934959 &#10;&#9;C198.386993,122.563164 200.367920,120.855301 205.287155,121.241852 &#10;&#9;C200.602066,126.291229 199.138474,131.188461 204.043671,136.353607 &#10;&#9;C208.081223,135.626877 210.516052,130.823456 215.503693,130.961304 &#10;&#9;C214.966476,133.988754 212.680344,134.559494 210.969788,135.618942 &#10;&#9;C207.001999,138.076416 204.463699,140.744263 206.229416,146.135315 &#10;&#9;C208.226227,152.232040 207.677261,158.364777 203.144333,163.479233 &#10;&#9;C201.950653,164.826035 200.517960,166.147247 198.922501,166.910751 &#10;&#9;C196.081207,168.270523 192.916702,169.652298 189.989319,167.288376 &#10;&#9;C186.948471,164.832825 187.197784,161.319885 188.242828,158.084824 &#10;&#9;C189.786484,153.306122 192.144089,148.900848 196.091095,145.099091 &#10;M200.518585,160.918442 &#10;&#9;C204.428818,155.703156 204.787155,150.183884 202.097519,143.870575 &#10;&#9;C197.841400,147.582474 194.745041,151.595993 192.645233,156.298233 &#10;&#9;C191.383545,159.123672 189.550140,162.870026 192.622604,164.899323 &#10;&#9;C195.507034,166.804413 197.856812,163.391678 200.518585,160.918442 &#10;z"/>
</svg>